<svg width="305" height="75" viewBox="0 0 305 75" fill="none" xmlns="http://www.w3.org/2000/svg">
<path d="M12.472 52.424C11.9173 54.4293 10.5093 55.7733 8.248 56.456C6.2 57.0533 4.36533 56.84 2.744 55.816C0.994667 54.7493 0.44 53.1707 1.08 51.08C1.63467 48.6907 2.70133 44.872 4.28 39.624C5.85867 34.376 6.968 30.6853 7.608 28.552C9.10133 23.2613 10.04 19.7627 10.424 18.056C11.7467 13.7893 12.6853 11.144 13.24 10.12C13.8373 9.096 14.3493 8.392 14.776 8.008C15.2027 7.58133 15.8853 7.09066 16.824 6.536C17.8053 5.98133 18.8507 5.55466 19.96 5.256C21.0693 4.95733 22.1787 4.76533 23.288 4.68C24.3973 4.552 25.528 4.46666 26.68 4.424C27.832 4.33866 29.112 4.12533 30.52 3.784C31.0747 3.784 31.5653 3.74133 31.992 3.656C32.4613 3.57066 32.9093 3.50666 33.336 3.464C34.3173 3.37866 35.2773 3.48533 36.216 3.784C37.1973 4.08266 37.9227 4.616 38.392 5.384C38.904 6.152 39.16 7.02667 39.16 8.008C39.16 8.98933 38.9467 10.0347 38.52 11.144C38.136 12.2533 37.5813 13.32 36.856 14.344C35.2773 16.5627 33.2933 18.1413 30.904 19.08C29.24 19.592 28.0453 19.848 27.32 19.848C26.5947 19.848 26.0827 19.7627 25.784 19.592C25.528 19.4213 25.3787 19.2933 25.336 19.208C25.2933 19.1227 25.144 19.272 24.888 19.656C24.504 20.2107 24.2267 20.8293 24.056 21.512C23.8853 22.1947 23.6933 22.7067 23.48 23.048C23.2667 23.3467 22.968 23.9653 22.584 24.904C22.2427 25.8427 21.7947 26.632 21.24 27.272C20.6853 27.8693 20.3653 28.232 20.28 28.36L25.912 27.784C26.808 27.6987 27.576 27.8907 28.216 28.36C28.8987 28.7867 29.368 29.32 29.624 29.96C29.9227 30.6 30.008 31.24 29.88 31.88C29.752 32.4773 29.368 32.9467 28.728 33.288C28.088 33.5867 27.6613 33.9067 27.448 34.248C27.2773 34.5467 27.128 34.8453 27 35.144C26.872 35.4427 26.7013 35.7413 26.488 36.04C26.3173 36.3387 25.912 36.616 25.272 36.872C23.9067 37.512 21.2827 38.024 17.4 38.408C17.1867 39.048 16.888 39.816 16.504 40.712C16.1627 41.5653 15.8 42.4613 15.416 43.4C14.3067 46.2587 13.6667 47.9867 13.496 48.584C13.368 49.1813 13.2613 49.672 13.176 50.056C12.92 51.208 12.6853 51.9973 12.472 52.424ZM110.242 26.824C111.821 25.7573 113.634 25.4373 115.682 25.864C117.73 26.3333 118.882 27.2293 119.138 28.552C119.479 27.7413 119.735 26.9307 119.906 26.12C121.826 17.4587 123.938 10.8453 126.242 6.28C126.967 4.872 127.714 3.89067 128.482 3.336C130.487 2.056 132.599 1.88533 134.818 2.824C135.714 3.208 136.418 3.74133 136.93 4.424C137.442 5.064 137.634 5.66133 137.506 6.216C137.421 6.77066 137.463 7.21866 137.634 7.56C137.847 7.90133 138.082 8.24267 138.338 8.584C139.021 9.39467 139.298 10.0987 139.17 10.696C138.317 14.0667 137.165 17.5653 135.714 21.192C134.306 24.776 132.855 28.36 131.362 31.944C129.869 35.528 128.503 39.0693 127.266 42.568C126.071 46.024 125.282 49.3093 124.898 52.424C124.898 53.2347 124.557 53.96 123.874 54.6C123.191 55.2827 122.338 55.816 121.314 56.2C118.882 57.0533 116.621 56.8827 114.53 55.688V55.304C114.103 55.176 113.783 55.0907 113.57 55.048C113.399 55.0053 113.271 54.92 113.186 54.792C113.058 54.5787 112.951 53.9173 112.866 52.808C112.013 54.1307 111.181 54.9413 110.37 55.24C109.559 55.5387 108.727 55.688 107.874 55.688C103.735 55.688 100.791 54.9413 99.042 53.448C97.506 52.168 96.7807 50.0773 96.866 47.176C96.9513 43.9333 98.146 40.3067 100.45 36.296C103.095 31.7307 106.359 28.5733 110.242 26.824ZM110.178 47.816C111.543 48.2853 112.482 47.9653 112.994 46.856C113.293 46.3013 113.57 45.576 113.826 44.68C114.125 43.784 114.487 42.7387 114.914 41.544L115.17 40.264C114.146 39.6667 113.207 39.5813 112.354 40.008C111.543 40.4347 110.882 41.096 110.37 41.992C109.858 42.888 109.559 43.8907 109.474 45C109.389 46.1093 109.623 47.048 110.178 47.816ZM134.242 33.416C134.284 31.6667 134.156 30.2373 133.858 29.128C133.559 28.0187 133.559 27.1013 133.858 26.376C134.199 25.608 134.711 25.0747 135.394 24.776C136.119 24.4773 136.951 24.392 137.89 24.52C138.871 24.6053 139.831 24.8827 140.77 25.352C143.031 26.376 144.61 27.8267 145.506 29.704C145.719 30.6427 145.634 31.816 145.25 33.224C144.908 34.5893 144.503 36.0187 144.034 37.512C143.564 38.9627 143.116 40.392 142.69 41.8C142.263 43.1653 142.092 44.3173 142.178 45.256C143.287 44.5733 144.247 43.5493 145.058 42.184C145.911 40.8187 146.679 39.368 147.362 37.832C148.087 36.2533 148.748 34.696 149.346 33.16C149.986 31.624 150.583 30.408 151.138 29.512C151.735 28.616 152.204 27.912 152.546 27.4C152.887 26.8453 153.228 26.3547 153.57 25.928C154.124 25.2027 154.85 24.4987 155.746 23.816C156.002 23.6027 156.77 23.6453 158.05 23.944C159.372 24.2 160.332 24.392 160.93 24.52C161.57 24.6053 161.996 24.5627 162.21 24.392L163.106 23.752C164.3 23.1547 165.708 23.176 167.33 23.816C168.908 24.4987 169.74 25.544 169.826 26.952C169.783 26.9947 169.762 27.08 169.762 27.208L169.954 27.272L169.506 27.656C169.207 28.2107 168.972 28.5947 168.802 28.808C168.674 28.9787 168.375 29.256 167.906 29.64C165.004 32.7547 161.676 38.536 157.922 46.984C156.983 49.0747 156.13 50.952 155.362 52.616C156.514 53.3413 157.388 54.28 157.986 55.432C158.583 56.584 158.583 57.8427 157.986 59.208C154.444 62.024 152.46 64.6693 152.034 67.144C151.82 68.68 151.543 69.768 151.202 70.408C150.903 71.048 150.412 71.6667 149.73 72.264C147.426 73.9707 144.716 73.544 141.602 70.984C139.383 68.7653 139.276 65.992 141.282 62.664C141.794 61.768 142.284 60.8293 142.754 59.848C143.436 58.3973 144.524 56.2427 146.018 53.384C142.348 55.5173 138.978 55.4747 135.906 53.256C133.73 51.592 132.962 47.816 133.602 41.928C134.028 38.0027 134.242 35.1653 134.242 33.416ZM222.167 4.744L222.423 4.808C223.49 5.448 224.407 6.17333 225.175 6.984C225.986 7.752 226.711 8.584 227.351 9.48C228.034 10.3333 228.567 11.272 228.951 12.296C230.572 16.2213 229.164 20.616 224.727 25.48C222.85 27.528 220.738 29.2773 218.391 30.728C218.988 31.1547 219.543 31.4747 220.055 31.688C220.61 31.8587 221.378 32.2213 222.359 32.776C223.34 33.288 223.98 34.2907 224.279 35.784C224.578 37.2347 224.492 38.8773 224.023 40.712C223.596 42.5467 222.786 44.4453 221.591 46.408C220.439 48.328 218.924 50.056 217.047 51.592C212.78 55.1333 207.831 56.6267 202.199 56.072C201.388 56.072 200.876 56.008 200.663 55.88C200.45 55.752 200.279 55.6453 200.151 55.56C200.023 55.4747 199.746 55.4107 199.319 55.368C198.252 56.2213 197.036 56.7547 195.671 56.968C194.306 57.1813 193.004 57.0747 191.767 56.648C190.572 56.2213 189.548 55.496 188.695 54.472C187.884 53.448 187.479 52.104 187.479 50.44C187.607 49.3307 187.82 48.456 188.119 47.816C187.991 47.432 187.927 46.9627 187.927 46.408C189.378 38.6853 190.743 32.776 192.023 28.68C194.626 20.5307 197.442 14.3867 200.471 10.248C202.946 6.74933 206.38 4.488 210.775 3.464C214.999 2.48266 218.796 2.90933 222.167 4.744ZM202.263 49.416C202.775 49.288 203.202 49.2667 203.543 49.352C203.927 49.3947 204.375 49.3733 204.887 49.288C206.124 49.16 207.788 48.392 209.879 46.984C211.202 45.6613 211.906 44.36 211.991 43.08C212.076 41.8 211.884 40.9893 211.415 40.648C210.946 40.264 210.306 40.072 209.495 40.072C208.727 40.072 207.852 40.2 206.871 40.456C205.932 40.6693 205.015 40.7973 204.119 40.84V40.968C203.906 41.8213 203.692 42.568 203.479 43.208C203.266 43.848 203.074 44.4667 202.903 45.064C202.519 46.472 202.22 47.9227 202.007 49.416H202.263ZM214.167 16.136C212.887 15.9653 211.5 16.968 210.007 19.144C209.068 20.5093 208.343 22.5787 207.831 25.352C208.727 24.968 209.602 24.648 210.455 24.392C211.351 24.0933 212.183 23.7733 212.951 23.432C214.828 22.6213 216.172 21.64 216.983 20.488C217.922 19.3787 218.22 18.44 217.879 17.672C217.367 16.9893 216.535 16.3707 215.383 15.816C215.042 16.1147 214.636 16.2213 214.167 16.136ZM213.207 15.88H213.399H213.207ZM263.719 5.128L263.783 4.872L264.359 4.296C264.828 3.18666 265.34 2.52533 265.895 2.312C266.194 2.22666 266.578 2.12 267.047 1.992C267.516 1.864 268.135 1.544 268.903 1.032C269.202 0.434664 269.82 0.178664 270.759 0.263996C271.698 0.306665 272.615 0.605331 273.511 1.16C274.45 1.672 275.196 2.39733 275.751 3.336C276.348 4.27467 276.498 5.256 276.199 6.28C275.9 7.26133 275.644 8.008 275.431 8.52C275.26 8.98933 275.068 9.43733 274.855 9.864C274.684 10.2907 274.45 10.7813 274.151 11.336C273.895 11.848 273.554 12.552 273.127 13.448L271.015 17.864C270.802 18.4187 270.61 18.7387 270.439 18.824C270.311 18.9093 270.183 19.0587 270.055 19.272C270.439 19.1867 270.759 19.1227 271.015 19.08C271.271 19.0373 271.527 18.9947 271.783 18.952C272.38 18.8667 273.063 18.7813 273.831 18.696C274.3 18.7813 274.706 18.824 275.047 18.824H275.943C276.455 18.824 277.074 18.9733 277.799 19.272C278.524 19.528 278.994 19.9973 279.207 20.68C279.42 21.3627 279.442 22.0667 279.271 22.792C279.1 23.4747 278.759 24.1147 278.247 24.712C277.735 25.3093 277.074 25.6293 276.263 25.672C272.551 26.696 269.906 27.2507 268.327 27.336L267.943 27.784V27.848C267.516 28.872 267.047 30.1733 266.535 31.752C266.066 33.288 265.532 34.9733 264.935 36.808C264.38 38.6 263.804 40.4773 263.207 42.44C262.61 44.36 261.991 46.216 261.351 48.008C259.303 54.024 257.81 57.288 256.871 57.8C256.53 57.9707 256.167 58.0773 255.783 58.12C255.442 58.2053 255.25 58.2693 255.207 58.312C253.714 58.2267 252.476 57.928 251.495 57.416C250.514 56.904 249.852 56.4133 249.511 55.944C249.17 55.4747 249.084 54.9413 249.255 54.344C250.066 46.92 251.687 38.792 254.119 29.96C253.266 29.96 252.668 30.0453 252.327 30.216C251.687 30.5573 250.919 30.7493 250.023 30.792H249.959C249.276 30.7493 248.658 30.4293 248.103 29.832C247.548 29.2347 247.207 28.552 247.079 27.784C246.951 27.016 247.079 26.2267 247.463 25.416C247.847 24.6053 248.615 23.9653 249.767 23.496C251.132 23.112 252.135 22.792 252.775 22.536C254.012 22.024 255.036 21.6613 255.847 21.448C256.7 21.2347 257.17 21.1067 257.255 21.064C257.383 20.9787 257.468 20.9147 257.511 20.872C257.639 20.7867 257.959 20.744 258.471 20.744C258.727 19.5067 258.983 18.248 259.239 16.968C259.495 15.688 259.815 14.3867 260.199 13.064C261.052 9.992 262.226 7.34666 263.719 5.128Z" fill="white"/>
<path d="M39.085 25.672C39.981 25.032 41.0903 24.8827 42.413 25.224C42.669 25.2667 42.925 25.288 43.181 25.288C44.1197 23.368 45.741 22.3653 48.045 22.28C48.6423 22.2373 49.4743 22.1307 50.541 21.96C51.6077 21.7893 52.8877 21.832 54.381 22.088C55.917 22.344 57.261 22.792 58.413 23.432C60.9303 24.7973 62.445 26.76 62.957 29.32C63.981 33.0747 63.8317 37.1707 62.509 41.608C61.101 46.5147 58.7117 50.44 55.341 53.384C53.805 54.7493 52.1837 55.6027 50.477 55.944C48.7703 56.328 47.2343 56.5413 45.869 56.584C44.5037 56.6267 43.245 56.6267 42.093 56.584C40.9837 56.584 39.8957 56.4773 38.829 56.264C36.525 55.7947 34.6263 54.7067 33.133 53C31.3837 51.08 30.637 48.0933 30.893 44.04C31.0637 40.456 31.9597 36.8507 33.581 33.224C35.245 29.5547 37.0797 27.0373 39.085 25.672ZM50.349 38.536C49.2823 38.8773 48.2797 39.0267 47.341 38.984C46.8717 39.4533 46.445 39.9653 46.061 40.52C45.7197 41.032 45.2503 41.5227 44.653 41.992C44.0557 42.4187 43.757 42.5893 43.757 42.504C43.0317 43.528 42.4343 44.5947 41.965 45.704C41.4957 46.7707 41.4957 47.8587 41.965 48.968C43.6717 49.1387 44.9303 49.096 45.741 48.84C46.5517 48.584 47.2983 48.0933 47.981 47.368C48.7063 46.6427 49.261 45.7893 49.645 44.808C50.413 42.9733 50.6477 40.8827 50.349 38.536ZM72.6475 25.672C73.5435 25.032 74.6528 24.8827 75.9755 25.224C76.2315 25.2667 76.4875 25.288 76.7435 25.288C77.6822 23.368 79.3035 22.3653 81.6075 22.28C82.2048 22.2373 83.0368 22.1307 84.1035 21.96C85.1702 21.7893 86.4502 21.832 87.9435 22.088C89.4795 22.344 90.8235 22.792 91.9755 23.432C94.4928 24.7973 96.0075 26.76 96.5195 29.32C97.5435 33.0747 97.3942 37.1707 96.0715 41.608C94.6635 46.5147 92.2742 50.44 88.9035 53.384C87.3675 54.7493 85.7462 55.6027 84.0395 55.944C82.3328 56.328 80.7968 56.5413 79.4315 56.584C78.0662 56.6267 76.8075 56.6267 75.6555 56.584C74.5462 56.584 73.4582 56.4773 72.3915 56.264C70.0875 55.7947 68.1888 54.7067 66.6955 53C64.9462 51.08 64.1995 48.0933 64.4555 44.04C64.6262 40.456 65.5222 36.8507 67.1435 33.224C68.8075 29.5547 70.6422 27.0373 72.6475 25.672ZM83.9115 38.536C82.8448 38.8773 81.8422 39.0267 80.9035 38.984C80.4342 39.4533 80.0075 39.9653 79.6235 40.52C79.2822 41.032 78.8128 41.5227 78.2155 41.992C77.6182 42.4187 77.3195 42.5893 77.3195 42.504C76.5942 43.528 75.9968 44.5947 75.5275 45.704C75.0582 46.7707 75.0582 47.8587 75.5275 48.968C77.2342 49.1387 78.4928 49.096 79.3035 48.84C80.1142 48.584 80.8608 48.0933 81.5435 47.368C82.2688 46.6427 82.8235 45.7893 83.2075 44.808C83.9755 42.9733 84.2102 40.8827 83.9115 38.536ZM234.26 25.288C234.815 23.88 236.138 22.92 238.229 22.408C240.191 21.896 242.026 21.96 243.733 22.6C245.482 23.2827 246.271 24.392 246.101 25.928C245.631 27.4213 245.034 29.256 244.309 31.432C243.626 33.5653 242.965 35.7627 242.325 38.024C240.618 43.8267 239.637 47.9227 239.381 50.312C238.741 54.152 237.674 56.2213 236.181 56.52C235.754 56.6053 235.349 56.6693 234.965 56.712C234.026 56.7547 233.429 57.0107 233.173 57.48C232.917 57.9493 232.49 58.2907 231.893 58.504C231.295 58.76 230.634 58.8667 229.909 58.824C229.226 58.824 228.522 58.6533 227.797 58.312C227.071 58.0133 226.453 57.5653 225.941 56.968C224.746 55.5173 224.511 53.576 225.236 51.144C225.919 46.4933 227.647 40.584 230.421 33.416C231.743 29.8747 233.023 27.1653 234.26 25.288ZM246.357 15.688C244.266 16.1147 242.559 15.9867 241.237 15.304C239.957 14.6213 239.21 13.8107 238.997 12.872C238.783 11.8907 239.082 10.888 239.893 9.864C240.831 8.584 242.239 7.752 244.117 7.368C244.97 7.28266 245.589 7.24 245.973 7.24C246.357 7.24 246.826 7.32533 247.381 7.496C248.789 7.624 249.706 8.24267 250.133 9.352C250.73 10.2907 250.773 11.3573 250.261 12.552C249.791 13.7467 248.49 14.792 246.357 15.688ZM296.586 43.528C295.775 43.912 294.986 44.2107 294.218 44.424C293.45 44.6373 292.554 44.8507 291.53 45.064C288.842 45.6187 286.901 45.9387 285.706 46.024C285.834 46.4507 286.474 46.9627 287.626 47.56C288.394 47.688 289.226 47.5813 290.122 47.24C291.061 46.856 292.021 46.5147 293.002 46.216C294.026 45.8747 295.007 45.6827 295.946 45.64C296.927 45.5973 297.845 45.96 298.698 46.728C299.039 47.496 299.317 47.944 299.53 48.072C299.743 48.2 299.935 48.264 300.106 48.264C300.277 48.264 300.469 48.328 300.682 48.456C300.895 48.584 301.194 49.0747 301.578 49.928C302.005 50.7813 301.898 51.592 301.258 52.36C300.661 53.128 299.722 53.7893 298.442 54.344C297.162 54.8987 295.669 55.3467 293.962 55.688C292.255 56.0293 290.549 56.264 288.842 56.392C285.002 56.6907 282.079 56.392 280.074 55.496C277.173 54.5147 275.295 52.5733 274.442 49.672C273.333 45.832 273.951 41.352 276.298 36.232C277.365 33.8427 279.05 31.2827 281.354 28.552C283.359 26.1627 285.599 24.4347 288.074 23.368C290.933 22.1307 293.919 21.5547 297.034 21.64C300.362 21.7253 302.666 23.176 303.946 25.992C304.586 27.4853 304.714 29.576 304.33 32.264C303.647 35.7627 302.751 38.2373 301.642 39.688C300.533 41.096 298.847 42.376 296.586 43.528ZM292.874 33.416C290.613 32.9467 288.842 34.2267 287.562 37.256C287.178 38.0667 286.879 38.92 286.666 39.816C288.117 39.9867 289.653 39.176 291.274 37.384C291.871 36.6587 292.319 35.9333 292.618 35.208C292.917 34.44 293.002 33.8427 292.874 33.416Z" fill="#FF8F0C"/>
</svg>
